<?xml version="1.0" encoding="UTF-8"?>
<!DOCTYPE svg PUBLIC "-//W3C//DTD SVG 1.1//EN" "http://www.w3.org/Graphics/SVG/1.1/DTD/svg11.dtd">
<!-- Creator: CorelDRAW X8 -->
<svg xmlns="http://www.w3.org/2000/svg" xml:space="preserve" width="642.055mm" height="642.055mm" version="1.1" style="shape-rendering:geometricPrecision; text-rendering:geometricPrecision; image-rendering:optimizeQuality; fill-rule:evenodd; clip-rule:evenodd"
viewBox="0 0 6459 6459"
 xmlns:xlink="http://www.w3.org/1999/xlink">
 <defs>
  <style type="text/css">
   <![CDATA[
    .fil0 {fill:#000002}
   ]]>
  </style>
 </defs>
 <g id="Layer_x0020_1">
  <metadata id="CorelCorpID_0Corel-Layer"/>
  <path class="fil0" d="M6399 2577l-1673 1675 177 181 569 7c155,-296 215,-491 283,-861l691 -690c45,547 -32,1000 -143,1351 -96,290 -233,569 -413,828 -7,10 -12,16 -14,19l-811 -10 -58 852c-18,12 -37,24 -55,36 -207,126 -532,300 -963,405 -358,86 -728,110 -1093,72l685 -689c410,-57 561,-144 811,-256l41 -595 -178 -178 -1674 1669c-234,-48 -463,-122 -683,-221l3745 -3746c-18,-54 -38,-108 -60,-161l-3830 3837c-189,-98 -371,-215 -542,-353l2024 -2040 -479 -491 -2049 2043c-297,-353 -554,-888 -646,-1380l1674 -1677 -178 -178 -595 41c-112,250 -199,401 -256,811l-689 685c-37,-365 -14,-735 72,-1093 105,-431 279,-756 405,-963 12,-18 24,-37 36,-55l852 -57 -10 -812c3,-2 10,-7 19,-14 259,-180 538,-317 828,-413 351,-111 805,-188 1351,-143l-690 691c-370,68 -565,129 -861,283l7 569 182 177 1674 -1673c234,48 464,122 686,222l-3757 3756c18,53 37,105 59,157l3848 -3840c189,97 370,215 541,353l-2039 2046 485 476 2039 -2027c329,390 553,875 655,1374z"/>
 </g>
</svg>
